<?xml version="1.0" encoding="iso-8859-1"?>
<!-- Uploaded to: SVG Repo, www.svgrepo.com, Generator: SVG Repo Mixer Tools -->
<svg height="800px" width="800px" version="1.1" id="Layer_1" xmlns="http://www.w3.org/2000/svg" xmlns:xlink="http://www.w3.org/1999/xlink"
	 viewBox="0 0 512 512" xml:space="preserve">
<path style="fill:#9ccfd8;" d="M475.649,484.836H36.358c-14.309,0-25.909-11.591-25.909-26.063V52.891
	c0-14.132,11.599-25.726,25.909-25.726h439.284c14.31,0,25.91,11.591,25.91,25.726v405.878
	C501.554,473.241,489.952,484.836,475.649,484.836z"/>
<path style="fill:#c8c5d9;" d="M501.554,104.563H10.45V53.06c0-14.303,11.599-25.895,25.91-25.895h439.285
	c14.307,0,25.909,11.591,25.909,25.895v51.503H501.554z"/>
<path style="fill:#c8c5d9;" d="M10.45,302.887v156.05c0,14.303,11.599,25.896,25.91,25.896h218.824V302.887H10.45L10.45,302.887z"/>
<path style="fill:#3e8fb0;" d="M501.554,302.887H255.185v181.946h220.464c14.307,0,25.909-11.592,25.909-25.896v-156.05H501.554z"/>
<path d="M212.375,405.083h-4.678c-5.77,0-10.449,4.678-10.449,10.449s4.679,10.449,10.449,10.449h4.678
	c5.77,0,10.449-4.678,10.449-10.449S218.146,405.083,212.375,405.083z"/>
<path d="M173.893,405.083H53.271c-5.77,0-10.449,4.678-10.449,10.449s4.679,10.449,10.449,10.449h120.622
	c5.771,0,10.449-4.678,10.449-10.449S179.663,405.083,173.893,405.083z"/>
<path d="M207.697,379.506h4.678c5.77,0,10.449-4.678,10.449-10.449s-4.679-10.449-10.449-10.449h-4.678
	c-5.77,0-10.449,4.678-10.449,10.449S201.927,379.506,207.697,379.506z"/>
<path d="M173.893,358.608H53.271c-5.77,0-10.449,4.678-10.449,10.449s4.679,10.449,10.449,10.449h120.622
	c5.771,0,10.449-4.678,10.449-10.449S179.663,358.608,173.893,358.608z"/>
<path d="M475.641,16.716H36.358C16.309,16.716,0,32.943,0,52.891v405.881c0,20.133,16.309,36.512,36.358,36.512h439.291
	c9.726,0,18.861-3.794,25.719-10.683c6.859-6.886,10.634-16.062,10.632-25.834V52.891C512,32.943,495.69,16.716,475.641,16.716z
	 M20.898,292.438V115.012h470.204v177.426H20.898z M36.358,37.614h439.284c8.524,0,15.46,6.854,15.46,15.277v41.223H20.898V52.891
	C20.898,44.468,27.833,37.614,36.358,37.614z M20.898,458.773V313.336h223.838v161.051H36.358
	C27.833,474.387,20.898,467.382,20.898,458.773z M486.561,469.856c-2.91,2.922-6.785,4.531-10.912,4.531H265.634V313.336h225.468
	v145.435C491.103,462.978,489.49,466.915,486.561,469.856z"/>
<path d="M54.366,76.312c5.762,0,10.449-4.687,10.449-10.449c0-5.762-4.687-10.449-10.449-10.449s-10.449,4.687-10.449,10.449
	C43.917,71.625,48.605,76.312,54.366,76.312z"/>
<path d="M99.287,76.312c5.762,0,10.449-4.687,10.449-10.449c0-5.762-4.687-10.449-10.449-10.449
	c-5.762,0-10.449,4.687-10.449,10.449C88.838,71.625,93.526,76.312,99.287,76.312z"/>
<path d="M144.209,76.312c5.762,0,10.449-4.687,10.449-10.449c0-5.762-4.687-10.449-10.449-10.449s-10.449,4.687-10.449,10.449
	C133.76,71.625,138.448,76.312,144.209,76.312z"/>
</svg>